# xmcd
#
# Track frame offsets:
#	150
#	14149
#	29190
#	42008
#	56804
#	67664
#	84369
#	94300
#	106999
#	126487
#	140873
#	152670
#	169721
#
# Disc length: 2467 seconds
#
# Revision: 1
# Processed by: cddbd v1.5.2PL0 Copyright (c) Steve Scherf et al.
# Submitted via: audiograbber 1.83.01
#
DISCID=b709a10d
DTITLE=Annie´s Crossing - Value Of A Woman
DYEAR=2003
DGENRE=Bluegrass
TTITLE0=Value Of A Woman
TTITLE1=Song Unsung
TTITLE2=A Change Of Heart
TTITLE3=Love Outlaw
TTITLE4=Sea Of Pain
TTITLE5=The Boy You Used To Be
TTITLE6=Rest In Peace
TTITLE7=Woman´s B.S.
TTITLE8=An Angel Brought Me Home Tonight
TTITLE9=In Love Again
TTITLE10=Affair Of Art
TTITLE11=Pardon Me
TTITLE12=Fire Of Love
EXTD=
EXTT0=
EXTT1=
EXTT2=
EXTT3=
EXTT4=
EXTT5=
EXTT6=
EXTT7=
EXTT8=
EXTT9=
EXTT10=
EXTT11=
EXTT12=
PLAYORDER=
